#!OML:ASF E:\acrobat2\Project_11_07_03\Capture day 1\Session 1\Acrobat.ASF
:FULLY-SPECIFIED
:DEGREES
204
root 12.8998 20.5033 10.1835 3.89475 5.19094 1.40902
lowerback -5.95134 0.915877 -0.377102
upperback -0.988622 1.29324 -1.85516
thorax 2.35243 0.648348 -1.59553
lowerneck 0.0513209 -3.1737 -0.4969
upperneck 5.75073 -4.38488 3.0212
head 1.86937 -2.1351 0.957287
rclavicle 2.32951e-014 7.95139e-016
rhumerus -37.7975 -6.47083 -83.6643
rradius 25.846
rwrist 8.42603
rhand -3.94327 -38.7189
rfingers 7.12502
rthumb 21.8084 -67.5102
lclavicle 2.32951e-014 7.95139e-016
lhumerus -30.9844 -9.45139 87.1292
lradius 21.8217
lwrist 6.40638
lhand -3.46431 -13.8911
lfingers 7.12502
lthumb 22.2683 14.8459
rfemur -5.26175 13.5383 17.1648
rtibia 23.2752
rfoot -41.5002 -18.3543
rtoes 18.9436
lfemur -18.5376 -3.61898 -15.3336
ltibia 39.2963
lfoot -31.2353 -15.2642
ltoes -1.15713
205
root 12.8993 20.5031 10.1849 3.89576 5.18914 1.40511
lowerback -5.93702 0.921847 -0.365474
upperback -0.993204 1.30009 -1.8524
thorax 2.34008 0.651819 -1.59892
lowerneck 0.0754025 -3.18784 -0.500974
upperneck 5.72939 -4.40307 3.02235
head 1.85873 -2.14467 0.958474
rclavicle 4.77704e-015 -1.19271e-014
rhumerus -37.7862 -6.49166 -83.672
rradius 25.7711
rwrist 8.53195
rhand -3.91253 -38.8782
rfingers 7.12502
rthumb 21.8379 -67.666
lclavicle 4.77704e-015 -1.19271e-014
lhumerus -30.9651 -9.50045 87.1443
lradius 21.8202
lwrist 6.273
lhand -3.42601 -13.9079
lfingers 7.12502
lthumb 22.3051 14.8247
rfemur -5.24648 13.5308 17.1696
rtibia 23.2453
rfoot -41.4808 -18.3355
rtoes 19.0323
lfemur -18.5441 -3.61085 -15.3266
ltibia 39.3144
lfoot -31.2557 -15.2482
ltoes -1.31217
206
root 12.8985 20.5029 10.1862 3.89861 5.18365 1.41362
lowerback -5.9256 0.926809 -0.368807
upperback -0.995698 1.3067 -1.85227
thorax 2.33122 0.655069 -1.59659
lowerneck 0.129317 -3.20011 -0.485053
upperneck 5.66839 -4.41705 3.00899
head 1.82898 -2.1527 0.952411
rclavicle 1.67103e-014 7.95139e-016
rhumerus -37.7592 -6.50738 -83.6778
rradius 25.686
rwrist 8.62822
rhand -3.86878 -39.0041
rfingers 7.12502
rthumb 21.88 -67.787
lclavicle 1.67103e-014 7.95139e-016
lhumerus -30.9434 -9.49776 87.1401
lradius 21.8479
lwrist 6.06337
lhand -3.35425 -13.8833
lfingers 7.12502
lthumb 22.3739 14.8411
rfemur -5.23682 13.5342 17.1628
rtibia 23.2209
rfoot -41.4567 -18.3449
rtoes 19.0717
lfemur -18.5486 -3.60521 -15.3322
ltibia 39.3291
lfoot -31.2746 -15.2335
ltoes -1.38366
207
root 12.8977 20.5024 10.1875 3.90598 5.17769 1.43445
lowerback -5.92384 0.928804 -0.387919
upperback -0.994825 1.31058 -1.85343
thorax 2.33084 0.656862 -1.58677
lowerneck 0.19778 -3.20979 -0.452723
upperneck 5.57875 -4.42611 2.97906
head 1.78645 -2.15869 0.938823
rclavicle -1.56978e-014 3.10104e-014
rhumerus -37.7256 -6.50808 -83.6857
rradius 25.6041
rwrist 8.71641
rhand -3.81724 -39.0811
rfingers 7.12502
rthumb 21.9295 -67.8582
lclavicle -1.56978e-014 3.10104e-014
lhumerus -30.9163 -9.46406 87.1285
lradius 21.8893
lwrist 5.83433
lhand -3.27772 -13.8354
lfingers 7.12502
lthumb 22.4474 14.8801
rfemur -5.23224 13.5076 17.1446
rtibia 23.203
rfoot -41.39 -18.4046
rtoes 18.9148
lfemur -18.5552 -3.60538 -15.3504
ltibia 39.341
lfoot -31.2872 -15.2262
ltoes -1.35403
208
root 12.897 20.502 10.1887 3.91779 5.17537 1.45637
lowerback -5.93212 0.92948 -0.407184
upperback -0.990965 1.31294 -1.85516
thorax 2.33911 0.657912 -1.57738
lowerneck 0.250677 -3.21535 -0.413058
upperneck 5.4921 -4.42985 2.94758
head 1.74734 -2.16174 0.92339
rclavicle 2.20651e-014 -7.95139e-016
rhumerus -37.6902 -6.4945 -83.6981
rradius 25.5286
rwrist 8.79685
rhand -3.77512 -39.0897
rfingers 7.12502
rthumb 21.9699 -67.8621
lclavicle 2.20651e-014 -7.95139e-016
lhumerus -30.8725 -9.42407 87.1195
lradius 21.9139
lwrist 5.64917
lhand -3.21927 -13.7924
lfingers 7.12502
lthumb 22.5035 14.9163
rfemur -5.23544 13.4817 17.1245
rtibia 23.1918
rfoot -41.3189 -18.4937
rtoes 18.6855
lfemur -18.5653 -3.61031 -15.3698
ltibia 39.3499
lfoot -31.2915 -15.2298
ltoes -1.25973
